<svg width="28" height="28" viewBox="0 0 28 28" fill="none" xmlns="http://www.w3.org/2000/svg">
<path d="M20.2302 6.36967C19.9533 6.36967 19.6826 6.45178 19.4524 6.60562C19.2221 6.75945 19.0427 6.9781 18.9367 7.23392C18.8308 7.48973 18.803 7.77123 18.8571 8.0428C18.9111 8.31437 19.0444 8.56383 19.2402 8.75962C19.436 8.95542 19.6855 9.08875 19.957 9.14277C20.2286 9.19679 20.5101 9.16907 20.7659 9.06311C21.0217 8.95714 21.2404 8.7777 21.3942 8.54747C21.5481 8.31724 21.6302 8.04657 21.6302 7.76967C21.6302 7.39837 21.4827 7.04228 21.2201 6.77973C20.9576 6.51717 20.6015 6.36967 20.2302 6.36967ZM25.5968 9.19301C25.5741 8.22502 25.3928 7.26731 25.0602 6.35801C24.7635 5.58 24.3018 4.8755 23.7068 4.29301C23.1291 3.695 22.423 3.23621 21.6418 2.95134C20.7349 2.60853 19.7762 2.42309 18.8068 2.40301C17.5702 2.33301 17.1735 2.33301 14.0002 2.33301C10.8268 2.33301 10.4302 2.33301 9.1935 2.40301C8.22417 2.42309 7.2654 2.60853 6.3585 2.95134C5.57879 3.2391 4.87325 3.6975 4.2935 4.29301C3.69549 4.87072 3.2367 5.57685 2.95183 6.35801C2.60902 7.26491 2.42357 8.22369 2.4035 9.19301C2.3335 10.4297 2.3335 10.8263 2.3335 13.9997C2.3335 17.173 2.3335 17.5697 2.4035 18.8063C2.42357 19.7757 2.60902 20.7344 2.95183 21.6413C3.2367 22.4225 3.69549 23.1286 4.2935 23.7063C4.87325 24.3019 5.57879 24.7603 6.3585 25.048C7.2654 25.3908 8.22417 25.5763 9.1935 25.5963C10.4302 25.6663 10.8268 25.6663 14.0002 25.6663C17.1735 25.6663 17.5702 25.6663 18.8068 25.5963C19.7762 25.5763 20.7349 25.3908 21.6418 25.048C22.423 24.7631 23.1291 24.3043 23.7068 23.7063C24.3044 23.126 24.7666 22.4209 25.0602 21.6413C25.3928 20.732 25.5741 19.7743 25.5968 18.8063C25.5968 17.5697 25.6668 17.173 25.6668 13.9997C25.6668 10.8263 25.6668 10.4297 25.5968 9.19301ZM23.4968 18.6663C23.4883 19.4069 23.3542 20.1407 23.1002 20.8363C22.9139 21.3441 22.6147 21.8028 22.2252 22.178C21.8468 22.5636 21.3889 22.8622 20.8835 23.053C20.1878 23.3071 19.4541 23.4412 18.7135 23.4497C17.5468 23.508 17.1152 23.5197 14.0468 23.5197C10.9785 23.5197 10.5468 23.5197 9.38016 23.4497C8.6112 23.4641 7.84552 23.3457 7.11683 23.0997C6.63357 22.8991 6.19674 22.6013 5.8335 22.2247C5.44627 21.8499 5.15081 21.3907 4.97016 20.883C4.68533 20.1774 4.52735 19.4269 4.5035 18.6663C4.5035 17.4997 4.4335 17.068 4.4335 13.9997C4.4335 10.9313 4.4335 10.4997 4.5035 9.33301C4.50873 8.57591 4.64694 7.82561 4.91183 7.11634C5.11722 6.6239 5.43247 6.18494 5.8335 5.83301C6.18795 5.43187 6.626 5.11329 7.11683 4.89967C7.82797 4.64306 8.57749 4.50893 9.3335 4.50301C10.5002 4.50301 10.9318 4.43301 14.0002 4.43301C17.0685 4.43301 17.5002 4.43301 18.6668 4.50301C19.4074 4.5115 20.1412 4.64563 20.8368 4.89967C21.367 5.09644 21.8428 5.41633 22.2252 5.83301C22.6075 6.19138 22.9062 6.62953 23.1002 7.11634C23.3595 7.82676 23.4937 8.57675 23.4968 9.33301C23.5552 10.4997 23.5668 10.9313 23.5668 13.9997C23.5668 17.068 23.5552 17.4997 23.4968 18.6663ZM14.0002 8.01467C12.8169 8.01698 11.661 8.36996 10.6783 9.029C9.69557 9.68804 8.93027 10.6236 8.47907 11.7174C8.02787 12.8112 7.91101 14.0142 8.14326 15.1744C8.3755 16.3346 8.94644 17.4 9.78392 18.2358C10.6214 19.0717 11.6878 19.6405 12.8485 19.8705C14.0092 20.1005 15.2119 19.9813 16.3049 19.528C17.3978 19.0746 18.3319 18.3075 18.989 17.3235C19.6461 16.3396 19.9968 15.1829 19.9968 13.9997C19.9984 13.2123 19.8442 12.4324 19.5433 11.7048C19.2423 10.9772 18.8005 10.3163 18.2432 9.76007C17.6859 9.20385 17.0241 8.7633 16.2959 8.46376C15.5677 8.16422 14.7875 8.0116 14.0002 8.01467ZM14.0002 17.8847C13.2318 17.8847 12.4807 17.6568 11.8418 17.2299C11.2029 16.803 10.7049 16.1963 10.4109 15.4864C10.1168 14.7765 10.0399 13.9954 10.1898 13.2417C10.3397 12.4881 10.7097 11.7959 11.2531 11.2526C11.7964 10.7092 12.4886 10.3392 13.2422 10.1893C13.9959 10.0394 14.777 10.1164 15.4869 10.4104C16.1968 10.7044 16.8035 11.2024 17.2304 11.8413C17.6573 12.4802 17.8852 13.2313 17.8852 13.9997C17.8852 14.5099 17.7847 15.0151 17.5894 15.4864C17.3942 15.9578 17.108 16.386 16.7473 16.7468C16.3865 17.1075 15.9582 17.3937 15.4869 17.5889C15.0155 17.7842 14.5103 17.8847 14.0002 17.8847Z" fill="#F9F9F9"/>
</svg>
