<svg width="28" height="28" viewBox="0 0 28 28" fill="none" xmlns="http://www.w3.org/2000/svg">
<g clip-path="url(#clip0_195_4110)">
<mask id="mask0_195_4110" style="mask-type:luminance" maskUnits="userSpaceOnUse" x="0" y="0" width="28" height="29">
<path d="M28 0.000976562H0V28.001H28V0.000976562Z" fill="white"/>
</mask>
<g mask="url(#mask0_195_4110)">
<path d="M24.7188 0.000976562H3.28125C1.46907 0.000976562 0 1.47004 0 3.28223V24.7197C0 26.5319 1.46907 28.001 3.28125 28.001H24.7188C26.5309 28.001 28 26.5319 28 24.7197V3.28223C28 1.47004 26.5309 0.000976562 24.7188 0.000976562Z" fill="black"/>
<path d="M19.4636 5.46973H22.3581L16.0345 12.6972L23.4738 22.5322H17.6489L13.0866 16.5674L7.86638 22.5322H4.97016L11.7339 14.8016L4.59741 5.46973H10.5701L14.694 10.9219L19.4636 5.46973ZM18.4478 20.7997H20.0516L9.69863 7.11123H7.97751L18.4478 20.7997Z" fill="#F9F9F9"/>
</g>
</g>
<defs>
<clipPath id="clip0_195_4110">
<rect width="28" height="28" fill="white"/>
</clipPath>
</defs>
</svg>
