<svg width="24" height="24" viewBox="0 0 24 24" fill="none" xmlns="http://www.w3.org/2000/svg">
<path d="M19.5 0.000976562C20.7396 0.000976562 21.7995 0.441081 22.6797 1.32129C23.5599 2.2015 24 3.26139 24 4.50098V19.501C24 20.7406 23.5599 21.8005 22.6797 22.6807C21.7995 23.5609 20.7396 24.001 19.5 24.001H16.5625V14.7041H19.6719L20.1406 11.0791H16.5625V8.7666C16.5625 8.18327 16.6849 7.74577 16.9297 7.4541C17.1745 7.16244 17.651 7.0166 18.3594 7.0166L20.2656 7.00098V3.7666C19.6094 3.67285 18.6823 3.62598 17.4844 3.62598C16.0677 3.62598 14.9349 4.04264 14.0859 4.87598C13.237 5.70931 12.8125 6.88639 12.8125 8.40723V11.0791H9.6875V14.7041H12.8125V24.001H4.5C3.26042 24.001 2.20052 23.5609 1.32031 22.6807C0.440104 21.8005 0 20.7406 0 19.501V4.50098C0 3.26139 0.440104 2.2015 1.32031 1.32129C2.20052 0.441081 3.26042 0.000976562 4.5 0.000976562H19.5Z" fill="#EFEFEF"/>
</svg>
